{
	"asset":{
		"generator":"Khronos glTF Blender I/O v4.1.62",
		"version":"2.0"
	},
	"extensionsUsed":[
		"KHR_materials_specular",
		"KHR_materials_ior"
	],
	"scene":0,
	"scenes":[
		{
			"name":"Scene",
			"nodes":[
				12
			]
		}
	],
	"nodes":[
		{
			"name":"Finger.002",
			"rotation":[
				7.14683998758718e-22,
				-7.105428204633949e-15,
				-6.14337549368722e-21,
				1
			],
			"scale":[
				0.9999999403953552,
				0.9999997615814209,
				0.9999999403953552
			],
			"translation":[
				-1.4210839468608953e-14,
				0.9129419326782227,
				2.3203661214665772e-14
			]
		},
		{
			"children":[
				0
			],
			"name":"Finger.001",
			"rotation":[
				8.881766197551123e-16,
				-7.105428204633949e-15,
				-5.945916332808065e-15,
				1
			],
			"scale":[
				0.9999999403953552,
				0.9999998807907104,
				0.9999999403953552
			],
			"translation":[
				-1.1165588310706187e-15,
				3.020716667175293,
				3.880229471064922e-14
			]
		},
		{
			"name":"Thumb.002",
			"rotation":[
				4.453794844039294e-08,
				-7.845245584897284e-14,
				0.11437152326107025,
				0.9934380650520325
			],
			"scale":[
				1.0000001192092896,
				1,
				1
			],
			"translation":[
				-2.3106494495550578e-08,
				0.7108880281448364,
				2.0463716055019177e-08
			]
		},
		{
			"children":[
				2
			],
			"name":"thumb.001",
			"rotation":[
				-2.162890240242632e-07,
				1.2816898692542822e-13,
				-0.5554208755493164,
				0.8315694332122803
			],
			"scale":[
				0.9999998807907104,
				0.9999999403953552,
				0.9999999403953552
			],
			"translation":[
				0.9449740052223206,
				1.3069490194320679,
				-3.679868143535714e-07
			]
		},
		{
			"name":"KnifeEye",
			"rotation":[
				-0.9928563237190247,
				9.145729507054057e-09,
				-0.11844531446695328,
				0.014389229007065296
			],
			"scale":[
				0.9999999403953552,
				1,
				1.000000238418579
			],
			"translation":[
				0.00011035054922103882,
				-1.0177758932113647,
				-0.0009254440665245056
			]
		},
		{
			"children":[
				4
			],
			"name":"Knife",
			"rotation":[
				0.44173309206962585,
				0.603407621383667,
				-0.3921677768230438,
				0.5357010364532471
			],
			"scale":[
				1,
				1.0000001192092896,
				0.9999999403953552
			],
			"translation":[
				-1.1932296752929688,
				2.174257516860962,
				1.0378714799880981
			]
		},
		{
			"children":[
				1,
				3,
				5
			],
			"name":"Hand",
			"rotation":[
				1.2322070475079272e-08,
				4.2558120113937725e-13,
				0.031642500311136246,
				0.9994992613792419
			],
			"translation":[
				6.641972305487798e-08,
				5.469385147094727,
				-6.893875692526308e-09
			]
		},
		{
			"children":[
				6
			],
			"name":"Forearm",
			"rotation":[
				-2.313012714694196e-08,
				1.3920460162353265e-07,
				-0.05534648522734642,
				0.998467206954956
			],
			"scale":[
				1,
				0.9999999403953552,
				1
			],
			"translation":[
				-3.6903600175719475e-09,
				7.293097019195557,
				1.6231268773481133e-08
			]
		},
		{
			"children":[
				7
			],
			"name":"Shoulder",
			"rotation":[
				0.7069076895713806,
				-0.01677621901035309,
				0.01677572913467884,
				0.7069077491760254
			],
			"scale":[
				1.000001311302185,
				1.000000238418579,
				1
			],
			"translation":[
				-1.1102230246251565e-16,
				0.365461140871048,
				-8.399353981018066
			]
		},
		{
			"mesh":0,
			"name":"Cube",
			"skin":0
		},
		{
			"mesh":1,
			"name":"Plane",
			"skin":0
		},
		{
			"mesh":2,
			"name":"Sphere",
			"skin":0
		},
		{
			"children":[
				9,
				10,
				11,
				8
			],
			"name":"Armature",
			"scale":[
				0.38898956775665283,
				0.38898956775665283,
				0.4550946056842804
			],
			"translation":[
				0,
				0,
				0.6488332748413086
			]
		}
	],
	"materials":[
		{
			"doubleSided":true,
			"extensions":{
				"KHR_materials_specular":{
					"specularFactor":0
				},
				"KHR_materials_ior":{
					"ior":1.4500000476837158
				}
			},
			"name":"Material.001",
			"pbrMetallicRoughness":{
				"baseColorFactor":[
					0.06561380624771118,
					0.009288555011153221,
					0.06110610067844391,
					1
				],
				"metallicFactor":0
			}
		},
		{
			"doubleSided":true,
			"name":"Material.002",
			"pbrMetallicRoughness":{
				"baseColorFactor":[
					0.18382667005062103,
					0.002845726441591978,
					0.0024547113571316004,
					1
				],
				"metallicFactor":0,
				"roughnessFactor":0.9492753744125366
			}
		},
		{
			"doubleSided":true,
			"name":"Material",
			"pbrMetallicRoughness":{
				"baseColorFactor":[
					1,
					0.71649169921875,
					0.737005889415741,
					1
				],
				"metallicFactor":0,
				"roughnessFactor":0
			}
		}
	],
	"meshes":[
		{
			"name":"Cube",
			"primitives":[
				{
					"attributes":{
						"POSITION":0,
						"NORMAL":1,
						"TEXCOORD_0":2,
						"TANGENT":3,
						"JOINTS_0":4,
						"JOINTS_1":5,
						"WEIGHTS_0":6,
						"WEIGHTS_1":7
					},
					"indices":8,
					"material":0
				}
			]
		},
		{
			"name":"Plane",
			"primitives":[
				{
					"attributes":{
						"POSITION":10,
						"NORMAL":11,
						"TEXCOORD_0":12,
						"TANGENT":13,
						"JOINTS_0":14,
						"WEIGHTS_0":15
					},
					"indices":16,
					"material":1
				}
			]
		},
		{
			"name":"Sphere.001",
			"primitives":[
				{
					"attributes":{
						"POSITION":17,
						"NORMAL":18,
						"TEXCOORD_0":19,
						"TANGENT":20,
						"JOINTS_0":21,
						"WEIGHTS_0":22
					},
					"indices":23,
					"material":2
				}
			]
		}
	],
	"skins":[
		{
			"inverseBindMatrices":9,
			"joints":[
				8,
				7,
				6,
				1,
				0,
				3,
				2,
				5,
				4
			],
			"name":"Armature"
		}
	],
	"accessors":[
		{
			"bufferView":0,
			"componentType":5126,
			"count":157,
			"max":[
				1.256687879562378,
				0.8289395570755005,
				5.218299865722656
			],
			"min":[
				-0.8095011711120605,
				-0.5059626698493958,
				-3.5972330570220947
			],
			"type":"VEC3"
		},
		{
			"bufferView":1,
			"componentType":5126,
			"count":157,
			"type":"VEC3"
		},
		{
			"bufferView":2,
			"componentType":5126,
			"count":157,
			"type":"VEC2"
		},
		{
			"bufferView":3,
			"componentType":5126,
			"count":157,
			"type":"VEC4"
		},
		{
			"bufferView":4,
			"componentType":5121,
			"count":157,
			"type":"VEC4"
		},
		{
			"bufferView":5,
			"componentType":5121,
			"count":157,
			"type":"VEC4"
		},
		{
			"bufferView":6,
			"componentType":5126,
			"count":157,
			"type":"VEC4"
		},
		{
			"bufferView":7,
			"componentType":5126,
			"count":157,
			"type":"VEC4"
		},
		{
			"bufferView":8,
			"componentType":5123,
			"count":606,
			"type":"SCALAR"
		},
		{
			"bufferView":9,
			"componentType":5126,
			"count":9,
			"type":"MAT4"
		},
		{
			"bufferView":10,
			"componentType":5126,
			"count":276,
			"max":[
				2.897625684738159,
				-0.06147710606455803,
				4.83487606048584
			],
			"min":[
				-0.8672722578048706,
				-0.4391414225101471,
				3.1516149044036865
			],
			"type":"VEC3"
		},
		{
			"bufferView":11,
			"componentType":5126,
			"count":276,
			"type":"VEC3"
		},
		{
			"bufferView":12,
			"componentType":5126,
			"count":276,
			"type":"VEC2"
		},
		{
			"bufferView":13,
			"componentType":5126,
			"count":276,
			"type":"VEC4"
		},
		{
			"bufferView":14,
			"componentType":5121,
			"count":276,
			"type":"VEC4"
		},
		{
			"bufferView":15,
			"componentType":5126,
			"count":276,
			"type":"VEC4"
		},
		{
			"bufferView":16,
			"componentType":5123,
			"count":924,
			"type":"SCALAR"
		},
		{
			"bufferView":17,
			"componentType":5126,
			"count":54,
			"max":[
				-0.5702694654464722,
				0.02037709578871727,
				3.7422139644622803
			],
			"min":[
				-1.1034177541732788,
				-0.5209957361221313,
				3.2090656757354736
			],
			"type":"VEC3"
		},
		{
			"bufferView":18,
			"componentType":5126,
			"count":54,
			"type":"VEC3"
		},
		{
			"bufferView":19,
			"componentType":5126,
			"count":54,
			"type":"VEC2"
		},
		{
			"bufferView":20,
			"componentType":5126,
			"count":54,
			"type":"VEC4"
		},
		{
			"bufferView":21,
			"componentType":5121,
			"count":54,
			"type":"VEC4"
		},
		{
			"bufferView":22,
			"componentType":5126,
			"count":54,
			"type":"VEC4"
		},
		{
			"bufferView":23,
			"componentType":5123,
			"count":240,
			"type":"SCALAR"
		}
	],
	"bufferViews":[
		{
			"buffer":0,
			"byteLength":1884,
			"byteOffset":0,
			"target":34962
		},
		{
			"buffer":0,
			"byteLength":1884,
			"byteOffset":1884,
			"target":34962
		},
		{
			"buffer":0,
			"byteLength":1256,
			"byteOffset":3768,
			"target":34962
		},
		{
			"buffer":0,
			"byteLength":2512,
			"byteOffset":5024,
			"target":34962
		},
		{
			"buffer":0,
			"byteLength":628,
			"byteOffset":7536,
			"target":34962
		},
		{
			"buffer":0,
			"byteLength":628,
			"byteOffset":8164,
			"target":34962
		},
		{
			"buffer":0,
			"byteLength":2512,
			"byteOffset":8792,
			"target":34962
		},
		{
			"buffer":0,
			"byteLength":2512,
			"byteOffset":11304,
			"target":34962
		},
		{
			"buffer":0,
			"byteLength":1212,
			"byteOffset":13816,
			"target":34963
		},
		{
			"buffer":0,
			"byteLength":576,
			"byteOffset":15028
		},
		{
			"buffer":0,
			"byteLength":3312,
			"byteOffset":15604,
			"target":34962
		},
		{
			"buffer":0,
			"byteLength":3312,
			"byteOffset":18916,
			"target":34962
		},
		{
			"buffer":0,
			"byteLength":2208,
			"byteOffset":22228,
			"target":34962
		},
		{
			"buffer":0,
			"byteLength":4416,
			"byteOffset":24436,
			"target":34962
		},
		{
			"buffer":0,
			"byteLength":1104,
			"byteOffset":28852,
			"target":34962
		},
		{
			"buffer":0,
			"byteLength":4416,
			"byteOffset":29956,
			"target":34962
		},
		{
			"buffer":0,
			"byteLength":1848,
			"byteOffset":34372,
			"target":34963
		},
		{
			"buffer":0,
			"byteLength":648,
			"byteOffset":36220,
			"target":34962
		},
		{
			"buffer":0,
			"byteLength":648,
			"byteOffset":36868,
			"target":34962
		},
		{
			"buffer":0,
			"byteLength":432,
			"byteOffset":37516,
			"target":34962
		},
		{
			"buffer":0,
			"byteLength":864,
			"byteOffset":37948,
			"target":34962
		},
		{
			"buffer":0,
			"byteLength":216,
			"byteOffset":38812,
			"target":34962
		},
		{
			"buffer":0,
			"byteLength":864,
			"byteOffset":39028,
			"target":34962
		},
		{
			"buffer":0,
			"byteLength":480,
			"byteOffset":39892,
			"target":34963
		}
	],
	"buffers":[
		{
			"byteLength":40372,
			"uri":"Arm-f366bc7d0bb0939eaaeac86f44724d42.bin"
		}
	]
}
