{
    "asset" : {
        "generator" : "Khronos glTF Blender I/O v1.7.33",
        "version" : "2.0"
    },
    "scene" : 0,
    "scenes" : [
        {
            "name" : "Scene",
            "nodes" : [
                0
            ]
        }
    ],
    "nodes" : [
        {
            "mesh" : 0,
            "name" : "LevelGeometry-col"
        }
    ],
    "meshes" : [
        {
            "name" : "LevelGeometryMesh",
            "primitives" : [
                {
                    "attributes" : {
                        "POSITION" : 0,
                        "NORMAL" : 1,
                        "TANGENT" : 2,
                        "TEXCOORD_0" : 3
                    },
                    "indices" : 4
                }
            ]
        }
    ],
    "accessors" : [
        {
            "bufferView" : 0,
            "componentType" : 5126,
            "count" : 350,
            "max" : [
                8.450672149658203,
                8.70116138458252,
                4.1620001792907715
            ],
            "min" : [
                -35.36341094970703,
                -17.729000091552734,
                -167.4029541015625
            ],
            "type" : "VEC3"
        },
        {
            "bufferView" : 1,
            "componentType" : 5126,
            "count" : 350,
            "type" : "VEC3"
        },
        {
            "bufferView" : 2,
            "componentType" : 5126,
            "count" : 350,
            "type" : "VEC4"
        },
        {
            "bufferView" : 3,
            "componentType" : 5126,
            "count" : 350,
            "type" : "VEC2"
        },
        {
            "bufferView" : 4,
            "componentType" : 5123,
            "count" : 540,
            "type" : "SCALAR"
        }
    ],
    "bufferViews" : [
        {
            "buffer" : 0,
            "byteLength" : 4200,
            "byteOffset" : 0
        },
        {
            "buffer" : 0,
            "byteLength" : 4200,
            "byteOffset" : 4200
        },
        {
            "buffer" : 0,
            "byteLength" : 5600,
            "byteOffset" : 8400
        },
        {
            "buffer" : 0,
            "byteLength" : 2800,
            "byteOffset" : 14000
        },
        {
            "buffer" : 0,
            "byteLength" : 1080,
            "byteOffset" : 16800
        }
    ],
    "buffers" : [
        {
            "byteLength" : 17880,
            "uri" : "Tutorial-a4c86fb2c0c1ff1348edc34aa7256fd5.bin"
        }
    ]
}
