{
    "asset" : {
        "generator" : "Khronos glTF Blender I/O v1.7.33",
        "version" : "2.0"
    },
    "scene" : 0,
    "scenes" : [
        {
            "extras" : {
                "map_flip_normals" : 0,
                "map_export_path" : "Map",
                "map_auto_uv" : 1
            },
            "name" : "Scene",
            "nodes" : [
                0,
                1
            ]
        }
    ],
    "nodes" : [
        {
            "mesh" : 0,
            "name" : "Map"
        },
        {
            "extras" : {
                "ceiling_height" : 4.0,
                "floor_height" : 0.0,
                "sector_type" : 4,
                "ceiling_texture" : "Material",
                "wall_texture" : "Material",
                "floor_texture" : "Material"
            },
            "mesh" : 1,
            "name" : "sector"
        }
    ],
    "materials" : [
        {
            "doubleSided" : true,
            "name" : "Material",
            "pbrMetallicRoughness" : {
                "baseColorFactor" : [
                    0.800000011920929,
                    0.800000011920929,
                    0.800000011920929,
                    1
                ],
                "metallicFactor" : 0,
                "roughnessFactor" : 0.5
            }
        }
    ],
    "meshes" : [
        {
            "name" : "sector.006",
            "primitives" : [
                {
                    "attributes" : {
                        "POSITION" : 0,
                        "NORMAL" : 1,
                        "TANGENT" : 2,
                        "TEXCOORD_0" : 3
                    },
                    "indices" : 4,
                    "material" : 0
                }
            ]
        },
        {
            "name" : "sector.001",
            "primitives" : [
                {
                    "attributes" : {
                        "POSITION" : 5,
                        "NORMAL" : 6
                    },
                    "indices" : 7,
                    "material" : 0
                },
                {
                    "attributes" : {
                        "POSITION" : 8,
                        "NORMAL" : 9
                    },
                    "indices" : 10,
                    "material" : 0
                },
                {
                    "attributes" : {
                        "POSITION" : 11,
                        "NORMAL" : 12
                    },
                    "indices" : 13,
                    "material" : 0
                }
            ]
        }
    ],
    "accessors" : [
        {
            "bufferView" : 0,
            "componentType" : 5126,
            "count" : 220,
            "max" : [
                10.245002746582031,
                4,
                11.261537551879883
            ],
            "min" : [
                -25.047286987304688,
                -7.178194046020508,
                -18.458026885986328
            ],
            "type" : "VEC3"
        },
        {
            "bufferView" : 1,
            "componentType" : 5126,
            "count" : 220,
            "type" : "VEC3"
        },
        {
            "bufferView" : 2,
            "componentType" : 5126,
            "count" : 220,
            "type" : "VEC4"
        },
        {
            "bufferView" : 3,
            "componentType" : 5126,
            "count" : 220,
            "type" : "VEC2"
        },
        {
            "bufferView" : 4,
            "componentType" : 5123,
            "count" : 348,
            "type" : "SCALAR"
        },
        {
            "bufferView" : 5,
            "componentType" : 5126,
            "count" : 56,
            "max" : [
                10.245002746582031,
                4,
                11.261537551879883
            ],
            "min" : [
                -25.047286987304688,
                -3.178194046020508,
                -18.458026885986328
            ],
            "type" : "VEC3"
        },
        {
            "bufferView" : 6,
            "componentType" : 5126,
            "count" : 56,
            "type" : "VEC3"
        },
        {
            "bufferView" : 7,
            "componentType" : 5123,
            "count" : 84,
            "type" : "SCALAR"
        },
        {
            "bufferView" : 8,
            "componentType" : 5126,
            "count" : 54,
            "max" : [
                10.197535514831543,
                0,
                11.261537551879883
            ],
            "min" : [
                -25.047286987304688,
                -7.178194046020508,
                -18.458026885986328
            ],
            "type" : "VEC3"
        },
        {
            "bufferView" : 9,
            "componentType" : 5126,
            "count" : 54,
            "type" : "VEC3"
        },
        {
            "bufferView" : 10,
            "componentType" : 5123,
            "count" : 84,
            "type" : "SCALAR"
        },
        {
            "bufferView" : 11,
            "componentType" : 5126,
            "count" : 120,
            "max" : [
                10.245002746582031,
                4,
                11.261537551879883
            ],
            "min" : [
                -25.047286987304688,
                -7.178194046020508,
                -18.458026885986328
            ],
            "type" : "VEC3"
        },
        {
            "bufferView" : 12,
            "componentType" : 5126,
            "count" : 120,
            "type" : "VEC3"
        },
        {
            "bufferView" : 13,
            "componentType" : 5123,
            "count" : 180,
            "type" : "SCALAR"
        }
    ],
    "bufferViews" : [
        {
            "buffer" : 0,
            "byteLength" : 2640,
            "byteOffset" : 0
        },
        {
            "buffer" : 0,
            "byteLength" : 2640,
            "byteOffset" : 2640
        },
        {
            "buffer" : 0,
            "byteLength" : 3520,
            "byteOffset" : 5280
        },
        {
            "buffer" : 0,
            "byteLength" : 1760,
            "byteOffset" : 8800
        },
        {
            "buffer" : 0,
            "byteLength" : 696,
            "byteOffset" : 10560
        },
        {
            "buffer" : 0,
            "byteLength" : 672,
            "byteOffset" : 11256
        },
        {
            "buffer" : 0,
            "byteLength" : 672,
            "byteOffset" : 11928
        },
        {
            "buffer" : 0,
            "byteLength" : 168,
            "byteOffset" : 12600
        },
        {
            "buffer" : 0,
            "byteLength" : 648,
            "byteOffset" : 12768
        },
        {
            "buffer" : 0,
            "byteLength" : 648,
            "byteOffset" : 13416
        },
        {
            "buffer" : 0,
            "byteLength" : 168,
            "byteOffset" : 14064
        },
        {
            "buffer" : 0,
            "byteLength" : 1440,
            "byteOffset" : 14232
        },
        {
            "buffer" : 0,
            "byteLength" : 1440,
            "byteOffset" : 15672
        },
        {
            "buffer" : 0,
            "byteLength" : 360,
            "byteOffset" : 17112
        }
    ],
    "buffers" : [
        {
            "byteLength" : 17472,
            "uri" : "Tutorial-e11cf17738941f05f44c2fd37958a8ee.bin"
        }
    ]
}
